<mxfile host="app.diagrams.net" modified="2021-11-18T11:01:56.474Z" agent="5.0 (Windows NT 10.0; Win64; x64) AppleWebKit/537.36 (KHTML, like Gecko) Chrome/96.0.4664.45 Safari/537.36" etag="8REdmPugMP6ULEWv91mm" version="15.8.0" type="github">
  <diagram id="Wya_-4il-YPhuTow91EJ" name="Page-1">
    <mxGraphModel dx="1038" dy="579" grid="1" gridSize="10" guides="1" tooltips="1" connect="1" arrows="1" fold="1" page="1" pageScale="1" pageWidth="850" pageHeight="1100" math="0" shadow="0">
      <root>
        <mxCell id="0" />
        <mxCell id="1" parent="0" />
        <mxCell id="NemUtUIAVzsq0a_iz3tJ-7" value="" style="edgeStyle=orthogonalEdgeStyle;rounded=0;orthogonalLoop=1;jettySize=auto;html=1;" edge="1" parent="1" source="NemUtUIAVzsq0a_iz3tJ-1" target="NemUtUIAVzsq0a_iz3tJ-5">
          <mxGeometry relative="1" as="geometry" />
        </mxCell>
        <mxCell id="NemUtUIAVzsq0a_iz3tJ-1" value="" style="outlineConnect=0;dashed=0;verticalLabelPosition=bottom;verticalAlign=top;align=center;html=1;shape=mxgraph.aws3.users;fillColor=#D2D3D3;gradientColor=none;" vertex="1" parent="1">
          <mxGeometry x="20" y="200" width="56" height="53.45" as="geometry" />
        </mxCell>
        <mxCell id="NemUtUIAVzsq0a_iz3tJ-4" value="Users" style="text;html=1;strokeColor=none;fillColor=none;align=center;verticalAlign=middle;whiteSpace=wrap;rounded=0;" vertex="1" parent="1">
          <mxGeometry x="30" y="280.45" width="40" height="20" as="geometry" />
        </mxCell>
        <mxCell id="NemUtUIAVzsq0a_iz3tJ-5" value="Classic Load Balancer" style="sketch=0;outlineConnect=0;fontColor=#232F3E;gradientColor=none;strokeColor=#ffffff;fillColor=#232F3E;dashed=0;verticalLabelPosition=middle;verticalAlign=bottom;align=center;html=1;whiteSpace=wrap;fontSize=10;fontStyle=1;spacing=3;shape=mxgraph.aws4.productIcon;prIcon=mxgraph.aws4.classic_load_balancer;" vertex="1" parent="1">
          <mxGeometry x="100" y="171.73000000000002" width="80" height="110" as="geometry" />
        </mxCell>
        <mxCell id="NemUtUIAVzsq0a_iz3tJ-8" value="" style="rounded=0;whiteSpace=wrap;html=1;direction=south;" vertex="1" parent="1">
          <mxGeometry x="200" y="161.73000000000002" width="60" height="120" as="geometry" />
        </mxCell>
        <mxCell id="NemUtUIAVzsq0a_iz3tJ-9" value="API&lt;br&gt;Rate&lt;br&gt;Limiter" style="text;html=1;strokeColor=none;fillColor=none;align=center;verticalAlign=middle;whiteSpace=wrap;rounded=0;" vertex="1" parent="1">
          <mxGeometry x="200" y="190" width="60" height="30" as="geometry" />
        </mxCell>
        <mxCell id="NemUtUIAVzsq0a_iz3tJ-15" style="edgeStyle=orthogonalEdgeStyle;rounded=0;orthogonalLoop=1;jettySize=auto;html=1;" edge="1" parent="1" source="NemUtUIAVzsq0a_iz3tJ-10">
          <mxGeometry relative="1" as="geometry">
            <mxPoint x="330" y="120" as="targetPoint" />
          </mxGeometry>
        </mxCell>
        <mxCell id="NemUtUIAVzsq0a_iz3tJ-10" value="Coupon Claim&amp;nbsp;&lt;br&gt;Service" style="rounded=0;whiteSpace=wrap;html=1;" vertex="1" parent="1">
          <mxGeometry x="270" y="200" width="120" height="60" as="geometry" />
        </mxCell>
        <mxCell id="NemUtUIAVzsq0a_iz3tJ-14" style="edgeStyle=orthogonalEdgeStyle;rounded=0;orthogonalLoop=1;jettySize=auto;html=1;" edge="1" parent="1" source="NemUtUIAVzsq0a_iz3tJ-11">
          <mxGeometry relative="1" as="geometry">
            <mxPoint x="310" y="190" as="targetPoint" />
          </mxGeometry>
        </mxCell>
        <mxCell id="NemUtUIAVzsq0a_iz3tJ-11" value="" style="outlineConnect=0;dashed=0;verticalLabelPosition=bottom;verticalAlign=top;align=center;html=1;shape=mxgraph.aws3.mysql_db_instance_2;fillColor=#2E73B8;gradientColor=none;" vertex="1" parent="1">
          <mxGeometry x="280" y="50" width="60" height="63" as="geometry" />
        </mxCell>
      </root>
    </mxGraphModel>
  </diagram>
</mxfile>
